#tb 0: 1/25
#media_type 0: video
#codec_id 0: rawvideo
#dimensions 0: 352x288
#sar 0: 0/1
0,          0,          0,        1,   152064, 0xf772f152
0,          1,          1,        1,   152064, 0x7c501772
0,          2,          2,        1,   152064, 0x98ed0a07
0,          3,          3,        1,   152064, 0x8f9289ae
0,          4,          4,        1,   152064, 0x4047c5e6
0,          5,          5,        1,   152064, 0xf1f11922
0,          6,          6,        1,   152064, 0xef8d8130
0,          7,          7,        1,   152064, 0x6cef489d
0,          8,          8,        1,   152064, 0x3743a97f
0,          9,          9,        1,   152064, 0x9d6b9846
0,         10,         10,        1,   152064, 0x332e05a7
0,         11,         11,        1,   152064, 0x7dad10af
0,         12,         12,        1,   152064, 0x835c99de
0,         13,         13,        1,   152064, 0x2ba3f9bb
0,         14,         14,        1,   152064, 0xf8ab5286
0,         15,         15,        1,   152064, 0x76624cca
0,         16,         16,        1,   152064, 0x8ebf6342
0,         17,         17,        1,   152064, 0x8756f87b
0,         18,         18,        1,   152064, 0xf005bc2f
0,         19,         19,        1,   152064, 0x9b1ae18e
0,         20,         20,        1,   152064, 0x3e1154aa
0,         21,         21,        1,   152064, 0x851e28d6
0,         22,         22,        1,   152064, 0x940a2518
0,         23,         23,        1,   152064, 0x861be99c
0,         24,         24,        1,   152064, 0x21a788a7
0,         25,         25,        1,   152064, 0x53e216eb
0,         26,         26,        1,   152064, 0x053cb9ec
0,         27,         27,        1,   152064, 0x3bb5cfc6
0,         28,         28,        1,   152064, 0x92b250c3
0,         29,         29,        1,   152064, 0xacc20f1c
0,         30,         30,        1,   152064, 0xb01256d3
0,         31,         31,        1,   152064, 0x6db62cf2
0,         32,         32,        1,   152064, 0x7fa3074d
0,         33,         33,        1,   152064, 0x63385103
0,         34,         34,        1,   152064, 0x83ba02b6
0,         35,         35,        1,   152064, 0x3731edbb
0,         36,         36,        1,   152064, 0xb73d5b99
0,         37,         37,        1,   152064, 0xd2e743e2
0,         38,         38,        1,   152064, 0x4bcd5bf2
0,         39,         39,        1,   152064, 0x45ef7b97
0,         40,         40,        1,   152064, 0x757952c6
0,         41,         41,        1,   152064, 0xed73e3db
0,         42,         42,        1,   152064, 0x8cf41b15
0,         43,         43,        1,   152064, 0x86e2b02d
0,         44,         44,        1,   152064, 0xf8d16c87
0,         45,         45,        1,   152064, 0x6720db65
0,         46,         46,        1,   152064, 0x67a5a150
0,         47,         47,        1,   152064, 0x1849fa2a
0,         48,         48,        1,   152064, 0xb0156742
0,         49,         49,        1,   152064, 0xde75b1fd
